<svg xmlns="http://www.w3.org/2000/svg" viewBox="0 0 512 512"><rect width="512" height="512" rx="120" fill="#CC0000"/><text x="55" y="195" font-family="Arial Black,sans-serif" font-weight="900" font-size="120" fill="white" letter-spacing="4">UTAH</text><path d="M55 220L55 370Q55 460 256 460Q457 460 457 370L457 220L375 220L375 370Q375 408 256 408Q137 408 137 370L137 220Z" fill="white"/><path d="M137 220L137 370Q137 408 256 408Q375 408 375 370L375 220L312 220L312 370Q312 384 256 384Q200 384 200 370L200 220Z" fill="#CC0000"/></svg>
